<svg width="342" height="342" viewBox="0 0 342 342" fill="none" xmlns="http://www.w3.org/2000/svg">
<rect width="342" height="342" rx="171" fill="#311C3C"/>
<path d="M161.562 133.828C158.75 134.297 155.938 134.766 153.125 135.234C150.312 135.703 147.812 136.094 145.625 136.406C142.969 136.875 140.469 137.266 138.125 137.578C135.781 138.047 133.203 138.438 130.391 138.75C128.047 139.062 125.312 139.375 122.188 139.688C119.062 139.844 115.781 140 112.344 140.156C112.656 138.906 112.969 137.344 113.281 135.469C113.75 133.594 114.141 131.797 114.453 130.078C114.922 128.047 115.312 125.938 115.625 123.75C116.094 120.938 116.406 118.594 116.562 116.719C116.875 114.844 117.109 113.203 117.266 111.797C117.578 110.391 117.969 109.141 118.438 108.047C118.906 106.953 119.766 105.859 121.016 104.766C122.891 103.047 125.234 101.172 128.047 99.1406C131.016 96.9531 134.531 95.0781 138.594 93.5156C142.812 91.7969 147.656 90.4688 153.125 89.5312C158.75 88.5938 165.234 88.3594 172.578 88.8281C179.922 89.2969 186.016 90.0781 190.859 91.1719C195.703 92.2656 199.766 93.6719 203.047 95.3906C206.328 96.9531 208.984 98.8281 211.016 101.016C213.203 103.047 215.234 105.469 217.109 108.281C218.984 111.094 220.781 114.531 222.5 118.594C224.375 122.5 225.938 126.641 227.188 131.016C228.438 135.391 229.141 139.766 229.297 144.141C229.609 148.516 229.219 152.422 228.125 155.859C226.719 158.672 223.984 161.484 219.922 164.297C216.328 166.797 211.172 169.609 204.453 172.734C197.891 175.859 188.75 178.984 177.031 182.109C177.344 185.078 177.812 187.734 178.438 190.078C179.062 192.422 179.688 194.453 180.312 196.172C180.938 198.203 181.719 200 182.656 201.562C183.594 202.969 184.453 204.531 185.234 206.25C186.016 207.656 186.797 209.219 187.578 210.938C188.516 212.5 189.375 213.984 190.156 215.391L144.219 221.016C145.625 219.297 146.719 217.5 147.5 215.625C148.438 213.594 149.141 211.719 149.609 210C150.234 207.969 150.547 205.938 150.547 203.906C150.547 201.719 150.391 199.062 150.078 195.938C149.766 193.281 149.297 189.922 148.672 185.859C148.203 181.641 147.344 176.719 146.094 171.094C153.438 170.781 159.453 170 164.141 168.75C168.984 167.344 172.891 165.938 175.859 164.531C179.297 162.812 181.953 161.016 183.828 159.141C185.234 157.422 186.406 154.766 187.344 151.172C188.438 147.422 189.141 143.281 189.453 138.75C189.922 134.219 189.922 129.609 189.453 124.922C188.984 120.078 187.891 115.781 186.172 112.031C184.453 108.281 182.031 105.313 178.906 103.125C175.938 100.781 172.109 99.7656 167.422 100.078C160.391 100.703 155.078 102.031 151.484 104.062C147.891 105.938 145.391 108.047 143.984 110.391C142.578 112.734 141.875 115.078 141.875 117.422C142.031 119.766 142.266 121.484 142.578 122.578C142.734 123.672 143.594 124.766 145.156 125.859C146.406 126.953 148.281 128.125 150.781 129.375C153.438 130.625 157.031 132.109 161.562 133.828ZM166.016 229.219C171.641 228.438 176.016 229.375 179.141 232.031C182.422 234.688 183.984 238.359 183.828 243.047C183.672 245.391 183.203 247.266 182.422 248.672C181.641 250.078 180.547 251.172 179.141 251.953C177.891 252.578 176.328 253.125 174.453 253.594C172.734 253.906 170.703 254.219 168.359 254.531C166.016 255 163.75 254.922 161.562 254.297C159.375 253.516 157.422 252.422 155.703 251.016C153.984 249.609 152.578 248.047 151.484 246.328C150.547 244.609 150.078 242.891 150.078 241.172C150.078 239.297 150.547 237.734 151.484 236.484C152.578 235.078 153.906 233.906 155.469 232.969C157.188 231.875 158.906 231.094 160.625 230.625C162.5 230 164.297 229.531 166.016 229.219Z" fill="#E9E7AD"/>
</svg>
